<svg xmlns="http://www.w3.org/2000/svg" width="1200" height="520" viewBox="0 0 1200 520" fill="none" role="img" aria-label="Abstract world map outline">
  <desc>Subtle abstract world map outline used as the YiForge Studio hero background.</desc>
  <g stroke="#7C5CFF" stroke-width="1.4" stroke-linecap="round" stroke-linejoin="round" opacity="0.42">
    <path d="M145 167C126 148 93 154 77 176C61 198 74 229 101 234C116 237 131 230 143 240C158 253 149 280 169 286C191 293 209 267 232 269C259 272 269 309 297 311C319 313 336 293 352 280C369 267 389 259 402 242C421 216 411 178 384 164C361 152 336 163 314 151C293 139 291 112 269 104C240 93 221 126 195 139C176 148 160 153 145 167Z"/>
    <path d="M251 325C232 341 225 366 238 386C253 409 284 412 304 395C323 379 326 349 307 333C291 319 268 311 251 325Z"/>
    <path d="M472 154C449 132 413 139 399 166C384 193 407 220 433 214C452 210 466 192 488 199C506 205 511 229 532 229C555 230 568 202 591 201C613 200 628 223 650 219C675 214 679 180 657 165C638 153 614 164 593 155C570 145 559 116 535 115C508 114 493 174 472 154Z"/>
    <path d="M548 256C525 252 503 269 501 293C499 319 526 335 550 326C566 320 574 302 591 298C610 293 625 313 644 306C665 298 669 270 652 256C637 244 617 251 599 246C581 241 567 259 548 256Z"/>
    <path d="M704 188C686 172 690 143 713 134C735 125 751 143 770 149C792 156 813 141 834 151C858 163 859 198 835 210C817 219 796 208 778 216C760 224 754 248 733 250C708 253 690 226 704 188Z"/>
    <path d="M819 247C801 261 802 292 824 306C843 318 864 306 881 315C900 325 902 352 925 357C950 362 972 338 967 313C963 292 943 281 927 269C911 257 899 235 877 235C857 235 839 232 819 247Z"/>
    <path d="M913 149C892 136 881 104 902 88C921 73 947 89 966 104C985 119 1009 128 1021 149C1035 174 1017 204 991 205C970 206 956 188 941 175C931 166 925 157 913 149Z"/>
    <path d="M1010 244C989 251 979 276 990 296C1002 318 1034 323 1051 305C1065 290 1064 266 1049 253C1038 243 1025 239 1010 244Z"/>
    <path d="M915 396C900 409 895 435 910 451C927 470 958 464 969 442C980 421 960 397 939 393C930 391 922 390 915 396Z"/>
  </g>
  <g stroke="#60A5FA" stroke-width="0.9" stroke-linecap="round" opacity="0.18">
    <path d="M72 260C242 197 377 204 524 262C670 319 813 320 962 258C1033 229 1091 227 1140 243"/>
    <path d="M98 328C255 291 408 303 555 347C701 391 851 387 1004 332"/>
    <path d="M130 120C280 84 437 94 583 137C732 181 881 177 1038 124"/>
  </g>
</svg>
