<svg width="40" height="40" viewBox="0 0 40 40" fill="none" xmlns="http://www.w3.org/2000/svg" role="img" aria-label="YiForge Studio Sail Mark">
  <rect x="1" y="1" width="38" height="38" rx="11" fill="#F8FBFF"/>
  <rect x="1" y="1" width="38" height="38" rx="11" stroke="#DDE8F7" stroke-width="1.2"/>
  <path d="M21.4 8.2C26.2 12.2 29.2 17.8 30.1 23.6L22.2 21.9L21.4 8.2Z" fill="url(#sailLarge)"/>
  <path d="M19.5 11.2C16.7 15.2 14.8 19.4 14.2 23.7L20.2 22L19.5 11.2Z" fill="url(#sailSmall)"/>
  <path d="M14.3 24.8L30.4 23.9C28 27.5 24.3 29.4 20.4 28.7C17.9 28.3 15.8 27 14.3 24.8Z" fill="#0A3F86"/>
  <path d="M10.1 29C14.5 26.4 18.8 27.3 22.5 29.1C25.8 30.7 29 31.2 33.2 28.8" stroke="#2C7BD0" stroke-width="2.2" stroke-linecap="round"/>
  <path d="M8 31.8C13.8 29.6 18.4 30.6 22.2 32.1C25.8 33.5 29.2 33.5 34 31.2" stroke="#7DB9F4" stroke-width="1.8" stroke-linecap="round"/>
  <defs>
    <linearGradient id="sailLarge" x1="21.5" y1="8" x2="31" y2="24" gradientUnits="userSpaceOnUse">
      <stop stop-color="#3A91F2"/>
      <stop offset="1" stop-color="#0C4FA3"/>
    </linearGradient>
    <linearGradient id="sailSmall" x1="20" y1="11" x2="13.8" y2="24" gradientUnits="userSpaceOnUse">
      <stop stop-color="#0F62C6"/>
      <stop offset="1" stop-color="#073C85"/>
    </linearGradient>
  </defs>
</svg>
